<svg width="14" height="14" viewBox="0 0 14 14" fill="none" xmlns="http://www.w3.org/2000/svg">
<path d="M9.15625 6.82617V2.57617L7.03125 0.451172L4.90625 2.57617V3.99284H0.65625V13.9095H13.4062V6.82617H9.15625ZM3.48958 12.4928H2.07292V11.0762H3.48958V12.4928ZM3.48958 9.65951H2.07292V8.24284H3.48958V9.65951ZM3.48958 6.82617H2.07292V5.40951H3.48958V6.82617ZM7.73958 12.4928H6.32292V11.0762H7.73958V12.4928ZM7.73958 9.65951H6.32292V8.24284H7.73958V9.65951ZM7.73958 6.82617H6.32292V5.40951H7.73958V6.82617ZM7.73958 3.99284H6.32292V2.57617H7.73958V3.99284ZM11.9896 12.4928H10.5729V11.0762H11.9896V12.4928ZM11.9896 9.65951H10.5729V8.24284H11.9896V9.65951Z" fill="#595959"/>
</svg>
