<svg width="36" height="19" viewBox="0 0 36 19" fill="none" xmlns="http://www.w3.org/2000/svg">
<path fill-rule="evenodd" clip-rule="evenodd" d="M13.2959 4.84083C13.2959 2.40864 15.2592 0.445312 17.6915 0.445312C20.1237 0.445312 22.087 2.40864 22.087 4.84083C22.087 7.27302 20.1237 9.23635 17.6915 9.23635C15.2592 9.23635 13.2959 7.27302 13.2959 4.84083ZM17.6915 3.37566C18.4973 3.37566 19.1566 4.03499 19.1566 4.84083C19.1566 5.64668 18.4973 6.30601 17.6915 6.30601C16.8856 6.30601 16.2263 5.64668 16.2263 4.84083C16.2263 4.03499 16.8856 3.37566 17.6915 3.37566ZM8.90041 7.77118C8.90041 9.38287 7.58173 10.7015 5.97003 10.7015C4.35838 10.7015 3.0397 9.38287 3.0397 7.77118C3.0397 6.15949 4.35838 4.84083 5.97003 4.84083C7.58173 4.84083 8.90041 6.15949 8.90041 7.77118ZM29.4128 10.7015C31.0245 10.7015 32.3432 9.38287 32.3432 7.77118C32.3432 6.15949 31.0245 4.84083 29.4128 4.84083C27.8012 4.84083 26.4825 6.15949 26.4825 7.77118C26.4825 9.38287 27.8012 10.7015 29.4128 10.7015ZM23.9038 11.6539C22.1895 10.892 20.0797 10.3352 17.6915 10.3352C15.3032 10.3352 13.1934 10.9066 11.4791 11.6539C9.89672 12.3572 8.90041 13.9396 8.90041 15.6685V18.0274H26.4825V15.6685C26.4825 13.9396 25.4862 12.3572 23.9038 11.6539ZM5.97009 12.1667C6.5415 12.1667 7.08361 12.2253 7.62573 12.3132C7.03961 13.3095 6.70265 14.4524 6.70265 15.6685V18.0274H0.109375V15.7271C0.109375 14.5403 0.81265 13.4854 1.89689 13.0165C3.14228 12.4744 4.51954 12.1667 5.97009 12.1667ZM33.486 13.0165C34.5703 13.4854 35.2735 14.5403 35.2735 15.7271V18.0274H28.6802V15.6685C28.6802 14.4524 28.3432 13.3095 27.7572 12.3132C28.2993 12.2253 28.8414 12.1667 29.4128 12.1667C30.8634 12.1667 32.2406 12.4744 33.486 13.0165ZM13.2666 14.0861C12.1238 14.5256 12.0652 14.7601 11.9333 15.097H23.4496C23.3031 14.7601 23.2444 14.5256 22.1163 14.0861C20.6951 13.5293 19.2006 13.2656 17.6915 13.2656C16.1823 13.2656 14.6878 13.5293 13.2666 14.0861Z" fill="#575757"/>
</svg>
