<svg width="25" height="20" viewBox="0 0 25 20" fill="none" xmlns="http://www.w3.org/2000/svg">
<path fill-rule="evenodd" clip-rule="evenodd" d="M21.6309 10.475H22.0915L25.0003 13.39L24.1317 14.2586L21.2171 11.3495V10.889L21.0597 10.7257C20.3951 11.2971 19.5324 11.641 18.5939 11.641C16.5011 11.641 14.8048 9.94454 14.8048 7.85163C14.8048 5.75873 16.5011 4.06226 18.5939 4.06226C20.6866 4.06226 22.3829 5.75873 22.3829 7.85163C22.3829 8.79023 22.039 9.65305 21.4677 10.3176L21.6309 10.475V10.475ZM15.9706 7.85163C15.9706 9.30326 17.1423 10.475 18.5939 10.475C20.0454 10.475 21.2171 9.30326 21.2171 7.85163C21.2171 6.40001 20.0454 5.22822 18.5939 5.22822C17.1423 5.22822 15.9706 6.40001 15.9706 7.85163Z" fill="#009AE0"/>
<path d="M9.01606 12.9335C6.00695 12.9335 0 14.4437 0 17.4415V19.6955H18.0321V17.4415C18.0321 14.4437 12.0252 12.9335 9.01606 12.9335Z" fill="#009AE0"/>
<path d="M4.21553 6.17166H13.8289C14.1332 6.17166 14.3811 5.92372 14.3811 5.61942V5.59688C14.3811 5.29259 14.1332 5.04465 13.8289 5.04465H13.5246C13.5246 3.37668 12.6117 1.94538 11.2706 1.15648V2.22713C11.2706 2.54269 11.0227 2.79064 10.7071 2.79064C10.3915 2.79064 10.1436 2.54269 10.1436 2.22713V0.694402C9.78295 0.604241 9.41104 0.536621 9.01658 0.536621C8.62213 0.536621 8.25022 0.604241 7.88958 0.694402V2.22713C7.88958 2.54269 7.64163 2.79064 7.32607 2.79064C7.01051 2.79064 6.76257 2.54269 6.76257 2.22713V1.15648C5.42143 1.94538 4.50855 3.37668 4.50855 5.04465H4.21553C3.91124 5.04465 3.6633 5.29259 3.6633 5.59688V5.63069C3.6633 5.92372 3.91124 6.17166 4.21553 6.17166Z" fill="#009AE0"/>
<path d="M9.01263 10.6796C11.1089 10.6796 12.8557 9.23704 13.3629 7.29858H4.66238C5.16954 9.23704 6.9164 10.6796 9.01263 10.6796Z" fill="#009AE0"/>
</svg>
