<svg width="23" height="22" viewBox="0 0 23 22" fill="none" xmlns="http://www.w3.org/2000/svg">
<path fill-rule="evenodd" clip-rule="evenodd" d="M22.235 7.52297C22.235 6.30321 21.257 5.32521 20.0372 5.32521H15.6417V3.12745C15.6417 1.90769 14.6637 0.929688 13.4439 0.929688H9.0484C7.82862 0.929688 6.85061 1.90769 6.85061 3.12745V5.32521H2.45511C1.23533 5.32521 0.268282 6.30321 0.268282 7.52297L0.257324 19.6106C0.257324 20.8304 1.23533 21.8084 2.45511 21.8084H20.0372C21.257 21.8084 22.235 20.8304 22.235 19.6106V7.52297ZM13.4438 5.32521V3.12745H9.04833V5.32521H13.4438ZM2.45505 7.52296V19.6106H20.0371V7.52296H2.45505Z" fill="#575757"/>
</svg>
