<svg width="28" height="29" viewBox="0 0 28 29" fill="none" xmlns="http://www.w3.org/2000/svg">
<g clip-path="url(#clip0_1_1224)">
<path fill-rule="evenodd" clip-rule="evenodd" d="M3.78821 10.8256C3.78821 6.20643 7.5337 2.46094 12.1528 2.46094C16.772 2.46094 20.5175 6.20643 20.5175 10.8256C20.5175 13.1574 19.5629 15.2666 18.0234 16.7837L18.5645 17.3248L19.7565 17.3901L26.3897 24.0095L24.6998 25.6994L24.4182 25.981L17.7849 19.3617L17.7196 18.1698L17.1118 17.562C15.7242 18.5854 14.009 19.1902 12.1528 19.1902C9.83862 19.1902 7.75676 18.2515 6.24183 16.7366L7.56159 15.4168C8.73263 16.5972 10.3591 17.3314 12.1528 17.3314C15.7496 17.3314 18.6587 14.4224 18.6587 10.8256C18.6587 7.22878 15.7496 4.31974 12.1528 4.31974C8.55605 4.31974 5.64702 7.22878 5.64702 10.8256H8.43522L4.68044 14.5711L4.61538 14.4409L1 10.8256H3.78821ZM11.2234 11.755V7.10795H12.6175V10.965L15.889 12.9074L15.1734 14.0971L11.2234 11.755Z" fill="#222222"/>
</g>
<defs>
<clipPath id="clip0_1_1224">
<rect width="28" height="28" fill="white" transform="translate(0 0.460938)"/>
</clipPath>
</defs>
</svg>
