<svg width="18" height="13" viewBox="0 0 18 13" fill="none" xmlns="http://www.w3.org/2000/svg">
<g clip-path="url(#clip0_1_1332)">
<path fill-rule="evenodd" clip-rule="evenodd" d="M12.7689 7.92324C13.7669 7.92324 14.5986 7.20096 14.8401 6.23047H10.6977C10.9391 7.20096 11.7708 7.92324 12.7689 7.92324Z" fill="#595959"/>
<path fill-rule="evenodd" clip-rule="evenodd" d="M10.4841 5.66696H15.0612C15.206 5.66696 15.3241 5.5428 15.3241 5.39048V5.37919C15.3241 5.22685 15.206 5.10271 15.0612 5.10271H14.9163C14.9163 4.26762 14.4817 3.55102 13.8431 3.15604V3.69208C13.8431 3.85007 13.7251 3.9742 13.5748 3.9742C13.4246 3.9742 13.3065 3.85007 13.3065 3.69208V2.92469C13.1348 2.87956 12.9578 2.8457 12.7699 2.8457C12.5821 2.8457 12.4051 2.87956 12.2334 2.92469V3.69208C12.2334 3.85007 12.1153 3.9742 11.9651 3.9742C11.8148 3.9742 11.6968 3.85007 11.6968 3.69208V3.15604C11.0582 3.55102 10.6236 4.26762 10.6236 5.10271H10.4841C10.3392 5.10271 10.2212 5.22685 10.2212 5.37919V5.39612C10.2212 5.5428 10.3392 5.66696 10.4841 5.66696V5.66696Z" fill="#595959"/>
<path fill-rule="evenodd" clip-rule="evenodd" d="M11.2953 12.3584H17.0635V11.2565C17.0635 9.79098 14.2035 9.05273 12.7708 9.05273C12.4184 9.05273 11.9795 9.09746 11.5181 9.18666C12.1247 9.62805 12.5189 10.1669 12.5189 10.8026V12.3583L11.2953 12.3584V12.3584Z" fill="#595959"/>
<path fill-rule="evenodd" clip-rule="evenodd" d="M5.92427 7.02772C7.10253 7.02772 8.0844 6.17502 8.36944 5.0293H3.4791C3.76414 6.17502 4.74601 7.02772 5.92427 7.02772Z" fill="#595959"/>
<path fill-rule="evenodd" clip-rule="evenodd" d="M3.22696 4.36386H8.6305C8.80151 4.36386 8.94087 4.21729 8.94087 4.03746V4.02414C8.94087 3.84429 8.80151 3.69773 8.6305 3.69773H8.45944C8.45944 2.71186 7.94637 1.86587 7.19252 1.39957V2.0324C7.19252 2.21892 7.05316 2.36547 6.87578 2.36547C6.6984 2.36547 6.55903 2.21892 6.55903 2.0324V1.12646C6.35633 1.07317 6.14731 1.0332 5.92555 1.0332C5.70384 1.0332 5.49482 1.07317 5.29212 1.12646V2.0324C5.29212 2.21892 5.15275 2.36547 4.97537 2.36547C4.79799 2.36547 4.65863 2.21892 4.65863 2.0324V1.39957C3.90478 1.86587 3.39171 2.71186 3.39171 3.69773H3.22696C3.05596 3.69773 2.9166 3.84429 2.9166 4.02414V4.04412C2.9166 4.21729 3.05596 4.36386 3.22696 4.36386V4.36386Z" fill="#595959"/>
<path fill-rule="evenodd" clip-rule="evenodd" d="M0.562988 11.0258C0.562988 9.25392 4.13799 8.36133 5.92884 8.36133C7.71969 8.36133 11.2947 9.25392 11.2947 11.0258V12.3581H0.562988V11.0258Z" fill="#595959"/>
</g>
<defs>
<clipPath id="clip0_1_1332">
<rect width="17" height="11.9" fill="white" transform="translate(0.195801 0.539062)"/>
</clipPath>
</defs>
</svg>
