<svg width="14" height="14" viewBox="0 0 14 14" fill="none" xmlns="http://www.w3.org/2000/svg">
<path d="M7.03125 0.982422C3.58125 0.982422 0.78125 3.78242 0.78125 7.23242C0.78125 10.6824 3.58125 13.4824 7.03125 13.4824C10.4812 13.4824 13.2812 10.6824 13.2812 7.23242C13.2812 3.78242 10.4812 0.982422 7.03125 0.982422ZM7.03125 12.2324C4.275 12.2324 2.03125 9.98867 2.03125 7.23242C2.03125 4.47617 4.275 2.23242 7.03125 2.23242C9.7875 2.23242 12.0312 4.47617 12.0312 7.23242C12.0312 9.98867 9.7875 12.2324 7.03125 12.2324ZM9.9 4.46992L5.78125 8.58867L4.1625 6.97617L3.28125 7.85742L5.78125 10.3574L10.7812 5.35742L9.9 4.46992Z" fill="#32C438"/>
</svg>
